<?xml version="1.0"?><svg width="195.00006" height="367.70395" xmlns="http://www.w3.org/2000/svg" xmlns:xlink="http://www.w3.org/1999/xlink">
 <title>Glass of water</title>
 <defs>
  <linearGradient id="linearGradient7447">
   <stop stop-color="#ffffff" id="stop7449" offset="0"/>
   <stop stop-color="#d4d4d4" stop-opacity="0.277778" id="stop7451" offset="1"/>
  </linearGradient>
  <linearGradient id="linearGradient7412">
   <stop stop-color="#ffffff" id="stop7414" offset="0"/>
   <stop stop-color="#ffffff" stop-opacity="0" id="stop7416" offset="1"/>
  </linearGradient>
  <linearGradient id="linearGradient7392">
   <stop stop-color="#a4a0d6" stop-opacity="0.744444" id="stop7394" offset="0"/>
   <stop stop-color="#000000" stop-opacity="0" id="stop7396" offset="1"/>
  </linearGradient>
  <filter id="filter3859">
   <feGaussianBlur id="feGaussianBlur3861" stdDeviation="0.272631"/>
  </filter>
  <radialGradient id="radialGradient7398" cx="159.03528" cy="469.75992" fx="159.03528" fy="469.75992" r="92.0625" gradientTransform="matrix(1.276085,0.0327843,-0.00768071,0.29896119,-40.299177,248.42355)" gradientUnits="userSpaceOnUse" xlink:href="#linearGradient7392"/>
  <filter height="1.241137" y="-0.120569" width="1.042318" x="-0.021159" id="filter7408">
   <feGaussianBlur id="feGaussianBlur7410" stdDeviation="1.623281"/>
  </filter>
  <linearGradient id="linearGradient7418" x1="0.878998" y1="0.033757" x2="0.855816" y2="0.678907" xlink:href="#linearGradient7412"/>
  <linearGradient id="linearGradient7453" x1="1.439426" y1="0.492793" x2="0.000653" y2="0.492793" xlink:href="#linearGradient7447"/>
  <filter height="1.306153" y="-0.153076" width="1.056925" x="-0.028462" id="filter7775">
   <feGaussianBlur id="feGaussianBlur7777" stdDeviation="2.143056"/>
  </filter>
 </defs>
 <metadata id="metadata7">image/svg+xml</metadata>
 <g>
  <title>Layer 1</title>
  <path opacity="0.601852" fill="#000000" stroke-width="2.191764" filter="url(#filter7775)" id="path7684" d="m7.66876,329.03244c-0.57098,0.109589 -0.47772,1.986938 -0.45868,2.934875c0,6.056 0.27704,4.229736 1.61518,6.387604c1.33813,2.157837 3.20343,4.056244 5.55114,5.887848c4.695499,3.663239 11.34046,6.89325 19.528259,9.595093c16.375492,5.403595 38.891117,8.722748 63.772343,8.722748c24.881226,0 47.396851,-3.319153 63.772339,-8.722748c8.187805,-2.701813 14.832825,-5.931854 19.528259,-9.595093c2.347717,-1.831604 4.213013,-3.730011 5.551147,-5.887848c1.338135,-2.157867 1.319336,-2.447937 1.196228,-7.266113c0.040405,-1.039764 0.459595,-2.127991 -0.171875,-2.127991c-4.010498,12.482147 -15.229675,17.078125 -26.566345,21.115326c-16.153198,5.330261 -38.553772,8.668243 -63.309753,8.668243c-24.755981,0 -47.156551,-3.337982 -63.309753,-8.668243c-8.076599,-2.665131 -14.599058,-5.834839 -18.999578,-9.267944c-4.76385,-2.708038 -5.70977,-7.635101 -7.69891,-11.775757z"/>
  <path fill="none" stroke="#000000" stroke-width="0.484981" d="m1.5993,8.18612l4.48853,308.313514" id="path7682"/>
  <path opacity="0.703704" fill="#00ffff" stroke="#cccccc" stroke-width="2" id="path3745" d="m1.60681,8.19362l4.47351,328.80461"/>
  <path fill="#000000" d="m97.579712,15.3459c-52.901672,0 -95.812502,-3.125119 -95.812502,-7c0,-0.43964 0.60022,-0.895289 1.65625,-1.3125c-0.4126,0.26435 -0.65625,0.54003 -0.65625,0.8125c0,3.87488 42.895201,7.15625 95.796877,7.15625c46.899658,0 85.888611,-2.61482 94.140625,-5.875c-5.455566,3.49544 -45.942932,6.21875 -95.125,6.21875z" id="path7678"/>
  <path fill="#000000" stroke="#ffffff" stroke-width="0.25" stroke-linecap="round" stroke-linejoin="round" stroke-miterlimit="4" stroke-dashoffset="0" id="path7583" d="m98.1297,0.49266c52.901672,0 95.8125,3.12511 95.8125,7c0,0.43963 -0.60022,0.89528 -1.65625,1.3125c0.412598,-0.26436 0.65625,-0.540061 0.65625,-0.8125c0,-3.87489 -42.895203,-7.15625 -95.796883,-7.15625c-46.899647,0 -85.888607,2.61481 -94.140617,5.875c5.45557,-3.49545 45.942932,-6.21875 95.125,-6.21875z"/>
  <path opacity="0.773148" fill="none" stroke="#cccccc" stroke-width="2" stroke-linecap="round" stroke-linejoin="round" stroke-miterlimit="4" stroke-dashoffset="0" d="m193.358368,8.19359c0,3.874889 -42.885376,7.016109 -95.786964,7.016109c-52.901703,0 -95.787014,-3.14122 -95.787014,-7.016109c0,-3.87489 42.885311,-7.01611 95.787014,-7.01611c52.901588,0 95.786964,3.14122 95.786964,7.01611z" id="path3747"/>
  <path fill="none" stroke="#e6e6e6" stroke-width="2" stroke-linecap="round" stroke-linejoin="round" stroke-miterlimit="4" stroke-dashoffset="0" id="path3753" d="m189.05542,336.493134c0,14.992554 -40.961914,27.146393 -91.490967,27.146393c-50.529053,0 -91.490963,-12.153839 -91.490963,-27.146393"/>
  <path fill="#007fff" stroke-width="1.357733" id="path3756" d="m192.455002,70.136513c0,6.053391 -42.513,10.960594 -94.955002,10.960594c-52.442299,0 -94.95523,-4.907204 -94.95523,-10.960594c0,-6.053413 42.512931,-10.960613 94.95523,-10.960613c52.442001,0 94.955002,4.9072 94.955002,10.960613z"/>
  <path fill="none" stroke="#000000" stroke-width="0.485524" id="path7680" d="m193.36554,8.18639l-4.317383,308.526287"/>
  <path opacity="0.842593" fill="none" stroke="#cccccc" stroke-width="2" d="m193.358276,8.19362l-4.302856,328.299514" id="path3758"/>
  <path fill="url(#radialGradient7398)" stroke-width="1.999999" filter="url(#filter7408)" id="path3762" d="m97.585266,304.021881c-50.842464,0 -92.062496,4.926636 -92.062496,11.03125l0.3125,0c1.1882,11.790771 41.813961,21.28125 91.749996,21.28125c49.936127,0 90.530518,-9.490479 91.71875,-21.28125l0.34375,0c0,-6.104614 -41.21994,-11.03125 -92.0625,-11.03125z"/>
  <path opacity="0.101852" fill="#d40000" stroke-width="2" id="rect7456" d="m190.055695,78.268661c0.780396,-0.700104 1.145386,-1.437973 1.624146,-2.165512l0,2.342278c-0.622406,-0.62603 -1.114899,-0.34288 -1.624146,-0.176765z"/>
  <path opacity="0.208333" fill="#d40000" stroke-width="2" d="m4.46222,78.522766c-0.7804,-0.700096 -1.14539,-1.437958 -1.62415,-2.165497l0,2.342278c0.62244,-0.62603 1.11493,-0.34288 1.62415,-0.176781z" id="path7463"/>
  <path opacity="0.8" fill="#007fff" stroke-width="2" id="path3841" d="m78.331749,334.323212c-37.303127,-2.098877 -66.919969,-10.054169 -71.076179,-19.332489c-1.41481,-3.157532 -0.76571,-16.695129 -2.14051,-124.036514c-0.8495,-66.32415 -1.33155,-123.533539 -1.07139,-123.80529c0.26028,-0.271736 2.079,3.242378 4.105609,4.357605c9.164401,5.046135 42.992509,7.890114 89.373372,7.402c47.634987,-0.50045 80.372536,-2.909172 88.881691,-7.402c2.044128,-1.079559 3.827469,-4.749832 4.065628,-4.500244c0.238174,0.248367 -0.243088,57.7873 -1.068817,124.413933c-1.362091,109.964066 -0.056076,120.508865 -1.543182,123.269211c-6.741577,12.509674 -60.156624,22.410187 -109.526222,19.633789z"/>
  <g id="g3910" transform="matrix(0.312201 0 0 0.312201 426.414 269.58)">
   <path opacity="0.643979" fill="#00ffff" stroke-width="2" d="m-1154.862061,159.421478c0,3.589859 -2.910156,6.5 -6.5,6.5c-3.589844,0 -6.5,-2.910141 -6.5,-6.5c0,-3.589844 2.910156,-6.5 6.5,-6.5c3.589844,0 6.5,2.910156 6.5,6.5z" id="path3912"/>
   <path opacity="0.643979" fill="#ffffff" stroke-width="2" filter="url(#filter3859)" id="path3914" d="m-1158.036621,154.976685c1.090332,2.15625 -2.99707,1.54158 -5.15332,2.631912c-2.15625,1.090317 -2.689819,5.316483 -3.780151,3.160217c-1.09021,-2.15625 0.211304,-5.819366 2.367554,-6.909698c2.15625,-1.090317 5.475586,-1.038696 6.565918,1.117569z"/>
  </g>
  <path opacity="0.59" fill="#b2b2b2" stroke-width="2" id="path7369" d="m78.952271,362.252319c-38.069241,-3.263824 -64.451671,-12.041718 -70.647281,-23.505554c-1.28671,-2.380798 -1.34506,-2.852203 -1.58589,-12.812225c-0.25037,-10.354156 -0.08212,-11.461792 1.43899,-9.474335c3.26995,4.2724 15.343329,9.315338 30.058852,12.555298c16.920357,3.725433 35.652557,5.410583 60.144127,5.410583c22.901482,0 38.528381,-1.24353 55.201614,-4.392731c15.57251,-2.941284 29.205582,-8.040985 34.194931,-12.791229c0.952057,-0.906403 1.883942,-1.64801 2.070801,-1.64801c0.18692,0 0.186523,4.612366 -0.000992,10.249695c-0.388123,11.678284 -0.615753,12.550476 -4.302872,16.486023c-7.890854,8.422791 -29.539795,15.57251 -57.420135,18.96344c-6.971786,0.847931 -42.387878,1.538971 -49.152115,0.959045l-0.000031,0z"/>
  <path fill="url(#linearGradient7453)" stroke-width="2" id="rect7428" d="m186.304016,321.859711l0,17.25c-29.453033,25.817657 -113.009949,23.613647 -154.249996,14.5c89.315701,12.916229 140.219723,-17.301086 154.249996,-31.75z"/>
  <path opacity="0.569444" fill="url(#linearGradient7418)" stroke-width="2" id="path3765" d="m183.376999,38.584999l-69.762001,4.567902c-4.296997,18.720798 32.318001,295.356102 -52.873699,276.328087c153.026707,45.193024 115.059696,-124.909973 122.6357,-280.895988l0,0l0,0z"/>
 </g>
</svg>